<?xml version="1.0" encoding="UTF-8"?>
<svg width="20" height="18" viewBox="0 0 20 18" fill="none" xmlns="http://www.w3.org/2000/svg">
<path d="M18.4537 9.27081C20.5154 7.14636 20.5154 3.69676 18.4537 1.59334C16.3919 -0.531113 13.0441 -0.531113 10.9824 1.59334L9.98214 2.64505L8.98188 1.61437C6.92013 -0.531113 3.57234 -0.531113 1.531 1.59334C0.530748 2.62401 0 3.99124 0 5.44259C0 6.89395 0.551161 8.26117 1.531 9.29185L9.98214 18L18.4537 9.27081ZM1.30283 5.44259C1.30283 4.34882 1.71166 3.33918 2.44097 2.58195C3.1703 1.82472 4.15106 1.42027 5.19742 1.42027C6.24378 1.42027 7.22454 1.82472 7.95388 2.58195L9.98214 4.67641L12.0104 2.58195C13.4697 1.06627 15.7492 1.06627 17.1891 2.58195C17.9184 3.33918 18.3479 4.34882 18.3479 5.44259C18.3479 6.53636 17.939 7.52493 17.1891 8.28215L9.98214 15.7162L2.77517 8.30318C2.02594 7.52493 1.30283 6.53636 1.30283 5.44259Z" fill="black"/>
</svg>
